<svg width="420" height="300" viewBox="0 0 420 300" fill="none" xmlns="http://www.w3.org/2000/svg">
<path fill-rule="evenodd" clip-rule="evenodd" d="M213.849 232L142.834 109C133.597 93 110.503 93 101.265 109L30.2512 232C21.0136 248 32.5606 268 51.0358 268H193.064C211.539 268 223.086 248 213.849 232ZM142.013 137.5C144.296 137.5 146.691 137.659 149.142 137.924L135.04 113.5C129.267 103.5 114.833 103.5 109.06 113.5L88.7685 148.645C93.1794 153.245 97.621 157 104.013 157C110.294 157 116.162 152.339 122.159 147.574C128.428 142.593 134.84 137.5 142.013 137.5Z" fill="url(#paint0_linear_2_2)"/>
<g filter="url(#filter0_d_2_2)">
<path fill-rule="evenodd" clip-rule="evenodd" d="M383.894 222.153L281.958 45.2901C270.208 24.9033 240.819 24.9033 229.069 45.2901L127.133 222.153C115.4 242.509 130.05 268 153.577 268H357.45C380.977 268 395.626 242.509 383.894 222.153ZM308.013 117.5C309.723 117.5 311.377 117.371 312.975 117.13L274.16 49.7843C265.873 35.4052 245.154 35.4052 236.867 49.7843L196.98 118.988C206.629 115.188 213.59 108.887 220.051 103.039C228.203 95.6586 235.559 89 246.513 89C261.749 89 270.152 96.3685 278.413 103.612C286.398 110.614 294.251 117.5 308.013 117.5Z" fill="url(#paint1_linear_2_2)"/>
</g>
<defs>
<filter id="filter0_d_2_2" x="97.002" y="19" width="299.023" height="272" filterUnits="userSpaceOnUse" color-interpolation-filters="sRGB">
<feFlood flood-opacity="0" result="BackgroundImageFix"/>
<feColorMatrix in="SourceAlpha" type="matrix" values="0 0 0 0 0 0 0 0 0 0 0 0 0 0 0 0 0 0 127 0" result="hardAlpha"/>
<feOffset dx="-9" dy="6"/>
<feGaussianBlur stdDeviation="8.5"/>
<feComposite in2="hardAlpha" operator="out"/>
<feColorMatrix type="matrix" values="0 0 0 0 0 0 0 0 0 0 0 0 0 0 0 0 0 0 0.27 0"/>
<feBlend mode="normal" in2="BackgroundImageFix" result="effect1_dropShadow_2_2"/>
<feBlend mode="normal" in="SourceGraphic" in2="effect1_dropShadow_2_2" result="shape"/>
</filter>
<linearGradient id="paint0_linear_2_2" x1="122.05" y1="97" x2="122.05" y2="268" gradientUnits="userSpaceOnUse">
<stop stop-color="#EF9F42"/>
<stop offset="1" stop-color="#FF008A"/>
</linearGradient>
<linearGradient id="paint1_linear_2_2" x1="255.513" y1="30" x2="255.513" y2="268" gradientUnits="userSpaceOnUse">
<stop stop-color="#FD6F66"/>
<stop offset="1" stop-color="#AF2DFF"/>
</linearGradient>
</defs>
</svg>
